<?xml version="1.0" encoding="UTF-8"?>
<svg id="Layer_1" xmlns="http://www.w3.org/2000/svg" version="1.1" viewBox="0 0 200 200">
  <!-- Generator: Adobe Illustrator 29.3.1, SVG Export Plug-In . SVG Version: 2.1.0 Build 151)  -->
  <defs>
    <style>
      .st0 {
        fill: #615858;
      }
    </style>
  </defs>
  <path class="st0" d="M32.6,199.7c-3.4,0-6.7-.9-9.6-2.5-6.6-3.7-10.7-10.8-10.7-18.6V21.4c0-7.8,4.1-14.9,10.7-18.6,3-1.7,6.4-2.6,9.8-2.5,3.4,0,6.8,1,9.8,2.8l135.7,80.4c2.8,1.8,5.2,4.2,6.8,7.1,1.6,2.9,2.5,6.1,2.5,9.4s-.8,6.6-2.5,9.4c-1.6,2.9-3.9,5.3-6.8,7.1L42.6,196.9c-3,1.8-6.5,2.8-10,2.8Z"/>
</svg>