<?xml version="1.0" encoding="UTF-8"?>
<svg id="box-piktogram" xmlns="http://www.w3.org/2000/svg" version="1.1" viewBox="0 0 200 200">
  <!-- Generator: Adobe Illustrator 29.3.1, SVG Export Plug-In . SVG Version: 2.1.0 Build 151)  -->
  <defs>
    <style>
      .st0, .st1 {
        fill: none;
      }

      .st2 {
        fill: #615858;
      }

      .st3 {
        fill: #fff;
      }

      .st4 {
        opacity: .9;
      }

      .st1 {
        stroke: #000;
        stroke-linecap: round;
        stroke-miterlimit: 10;
        stroke-width: 3px;
      }

      .st5 {
        fill: #f4f3f1;
      }
    </style>
  </defs>
  <path class="st1" d="M53.7,5"/>
  <g>
    <path class="st2" d="M163.7,3.6h-17.5c-.7-1.4-2.2-2.4-4-2.4H57.2c-1.7,0-3.2,1-4,2.4h-17.6C17.8,3.6,3.4,18.1,3.4,35.8v127.8c0,17.9,14.5,32.2,32.2,32.2h19.2c.7,1.6,2.2,2.6,4.1,2.6h83.1c1.7,0,3.3-1.1,4.1-2.6h17.5c17.9,0,32.2-14.5,32.2-32.2V35.8c0-17.9-14.5-32.2-32.2-32.2h.1ZM48.3,18.3h-9.3c-11.4,0-20.7,9.3-20.7,20.7v121.5c0,11.4,9.3,20.7,20.7,20.7h8.7c.5,0,1,.4,1,1s-.4,1-1,1h-8.7c-12.4,0-22.6-10.2-22.6-22.6V39c0-12.4,10.2-22.6,22.6-22.6h9.3c.5,0,1,.4,1,1s-.4,1-1,1h0ZM46.9,167c.5,0,.9.6.7,1.1,0,.5-.5.7-.9.7s-.1,0-.2,0c-10-2.1-16.6-10.7-16.6-21.7V52.6c0-10.5,7.2-19.6,17.5-21.9.5,0,1,.2,1.1.7,0,.5-.2,1-.7,1.1-9.4,2.1-16,10.4-16,20.2v94.5c0,10.2,6,18,15.1,20h0ZM54.8,3.6c.6-.7,1.5-1.1,2.5-1.1h85.1c1,0,1.9.5,2.5,1.1H54.8ZM142.1,197.4H59c-1.1,0-2-.5-2.6-1.4h88.4c-.6.9-1.6,1.4-2.6,1.4h-.1ZM183,160.6c0,12.4-10.2,22.6-22.6,22.6h-8.6c-.5,0-1-.4-1-1s.4-1,1-1h8.6c11.4,0,20.7-9.3,20.7-20.7V39c0-11.4-9.3-20.7-20.7-20.7h-8.9c-.5,0-1-.4-1-1s.4-1,1-1h8.9c12.4,0,22.6,10.2,22.6,22.6v121.5h0ZM152.7,32.2c-.5,0-.9-.6-.7-1.1,0-.5.6-.9,1.1-.7,10,1.9,16.5,10.5,16.5,22.2v94.5c0,11-6.6,20-16.5,22.1h-.2c-.4,0-.9-.2-.9-.7s.2-1,.7-1.1c8.9-2,15-10,15-20.2V52.6c0-10.8-5.8-18.7-15-20.3Z"/>
    <path class="st3" d="M57.3,1.9h85.1c2,0,3.6,1.5,3.8,3.5l2.4,19.8c0,1,.1,2,.1,3v144.7c0,1.1,0,2.2-.2,3.2l-2.4,18.6c-.2,2-1.9,3.3-3.8,3.3H59.2c-1.9,0-3.5-1.4-3.8-3.1l-3.3-17.6c-.2-1.6-.5-3.2-.5-4.8V26.5l1.9-20v-1.1c.2-2,2-3.6,4-3.6Z"/>
  </g>
  <rect class="st2" x="76.3" y="77.5" width="50" height="47.2"/>
  <g>
    <path class="st3" d="M76.3,127.7l50-.9s-50,.9-50,.9Z"/>
    <rect class="st2" x="76.3" y="126.6" width="50" height="1.2" transform="translate(-2.2 1.8) rotate(-1)"/>
  </g>
  <g>
    <line class="st0" x1="76.3" y1="129.4" x2="126.2" y2="132.2"/>
    <rect class="st2" x="100.8" y="105.8" width="1.2" height="50.1" transform="translate(-34.9 224.8) rotate(-86.8)"/>
  </g>
  <path class="st2" d="M146,27.3H54.2c-.5,0-1-.4-1-1s.4-1,1-1h91.8c.5,0,1,.4,1,1s-.4,1-1,1Z"/>
  <path class="st2" d="M144.7,174.7H54.2c-.5,0-1-.4-1-1s.4-1,1-1h90.5c.5,0,1,.4,1,1s-.4,1-1,1Z"/>
  <g class="st4">
    <path class="st5" d="M90.4,97.1v-5.2c-.9-1.5-1.7-3-2.5-4.3s-1.4-2.9-2-4.3h2.1c.4,1.2.9,2.5,1.5,3.6s1.1,2.4,1.9,3.5c.7-1.2,1.2-2.5,1.9-3.6.5-1.1,1-2.4,1.5-3.5h2c-.6,1.5-1.2,2.9-2,4.2s-1.5,2.9-2.5,4.3v5.2h-1.9,0ZM110.4,97.1v-5.2c-.9-1.5-1.7-3-2.5-4.3s-1.4-2.9-2-4.3h2.1c.4,1.2.9,2.5,1.5,3.6s1.1,2.4,1.9,3.5c.7-1.2,1.2-2.5,1.9-3.6.5-1.1,1-2.4,1.5-3.5h2c-.6,1.5-1.2,2.9-2,4.2s-1.5,2.9-2.5,4.3v5.2h-1.9,0ZM94.1,111.8h1.9v6.4c-.2,0-.7.2-1.4.4-.6.1-1.4.2-2.2.2s-1.6-.1-2.2-.5c-.7-.4-1.2-.7-1.7-1.4s-.9-1.4-1.1-2.2c-.2-.9-.4-2-.4-3.1s.1-2.2.5-3.1c.2-.9.7-1.6,1.2-2.2s1.1-1.1,1.9-1.4c.7-.4,1.4-.5,2.2-.5h1.4c.4,0,.7.1,1,.2.2,0,.5.2.7.4.1,0,.4.2.4.2l-.6,1.5c-.4-.2-.7-.5-1.2-.6s-1-.2-1.5-.2-1.1.1-1.6.4c-.5.2-.9.6-1.2,1.1s-.6,1.1-.9,1.7c-.2.7-.2,1.5-.2,2.4s0,1.6.2,2.2c.1.7.4,1.2.7,1.7.4.5.7.9,1.2,1.1.5.2,1,.4,1.7.4h1c.2,0,.4,0,.5-.1v-5.2h-.2ZM110.9,117.4c1,0,1.6-.1,2.1-.5.5-.4.7-.9.7-1.6s0-.7-.2-1.1c-.1-.4-.4-.6-.7-.9-.2-.2-.6-.5-1-.6s-.7-.4-1.1-.5c-.5-.1-.9-.4-1.2-.6s-.7-.5-1.1-.7-.6-.6-.7-1-.2-.9-.2-1.5c0-1.2.4-2.1,1.1-2.9.7-.7,1.9-1,3.2-1s.7,0,1.1,0,.7,0,1,.1c.4,0,.6.1.9.2.2,0,.5.2.6.4l-.6,1.5c-.2-.1-.7-.4-1.2-.5s-1.1-.2-1.7-.2-1.2.1-1.7.5-.7.9-.7,1.5,0,.7.2,1c.1.2.4.5.6.7s.5.4.9.5c.4.1.7.4,1.1.5.6.2,1.1.5,1.5.7.5.2.9.5,1.2.9.4.4.6.7.7,1.1.2.5.2,1,.2,1.6,0,1.2-.4,2.1-1.2,2.9-.9.6-2,1-3.5,1s-1,0-1.4,0-.9-.1-1.1-.2c-.4,0-.6-.2-.9-.4-.2,0-.5-.2-.6-.2l.6-1.5c.2.1.7.4,1.4.6s1.2.4,2.1.4h-.2Z"/>
  </g>
</svg>