<?xml version="1.0" encoding="UTF-8"?>
<svg id="Layer_1" xmlns="http://www.w3.org/2000/svg" version="1.1" viewBox="0 0 50 50">
  <!-- Generator: Adobe Illustrator 29.1.0, SVG Export Plug-In . SVG Version: 2.1.0 Build 142)  -->
  <defs>
    <style>
      .st0 {
        fill: #fff;
      }
    </style>
  </defs>
  <path class="st0" d="M35.4,4.2c2.8,0,5.4,1.1,7.4,3.1,2,2,3.1,4.6,3.1,7.4v20.8c0,2.8-1.1,5.4-3.1,7.4-2,2-4.6,3.1-7.4,3.1H14.6c-2.8,0-5.4-1.1-7.4-3.1-2-2-3.1-4.6-3.1-7.4V14.6c0-2.8,1.1-5.4,3.1-7.4,2-2,4.6-3.1,7.4-3.1h20.8ZM35.4,0H14.6C6.6,0,0,6.6,0,14.6v20.8C0,43.4,6.6,50,14.6,50h20.8c8,0,14.6-6.6,14.6-14.6V14.6c0-8-6.6-14.6-14.6-14.6Z"/>
  <path class="st0" d="M38.5,14.6c-.6,0-1.2-.2-1.7-.5-.5-.3-.9-.8-1.2-1.4-.2-.6-.3-1.2-.2-1.8.1-.6.4-1.2.9-1.6.4-.4,1-.7,1.6-.9.6-.1,1.2,0,1.8.2.6.2,1.1.6,1.4,1.2s.5,1.1.5,1.7c0,.4,0,.8-.2,1.2-.2.4-.4.7-.7,1-.3.3-.6.5-1,.7-.4.2-.8.2-1.2.2ZM25,16.7c1.6,0,3.3.5,4.6,1.4,1.4.9,2.4,2.2,3.1,3.7.6,1.5.8,3.2.5,4.8-.3,1.6-1.1,3.1-2.3,4.3-1.2,1.2-2.7,2-4.3,2.3-1.6.3-3.3.2-4.8-.5-1.5-.6-2.8-1.7-3.7-3.1-.9-1.4-1.4-3-1.4-4.6,0-2.2.9-4.3,2.4-5.9,1.6-1.6,3.7-2.4,5.9-2.4ZM25,12.5c-2.5,0-4.9.7-6.9,2.1-2.1,1.4-3.7,3.3-4.6,5.6-.9,2.3-1.2,4.8-.7,7.2.5,2.4,1.7,4.7,3.4,6.4,1.7,1.7,4,2.9,6.4,3.4,2.4.5,4.9.2,7.2-.7,2.3-.9,4.2-2.5,5.6-4.6,1.4-2.1,2.1-4.5,2.1-6.9s-1.3-6.5-3.7-8.8c-2.3-2.3-5.5-3.7-8.8-3.7Z"/>
</svg>