<?xml version="1.0" encoding="UTF-8"?>
<svg id="Layer_1" xmlns="http://www.w3.org/2000/svg" version="1.1" viewBox="0 0 200 200">
  <!-- Generator: Adobe Illustrator 29.3.1, SVG Export Plug-In . SVG Version: 2.1.0 Build 151)  -->
  <defs>
    <style>
      .st0 {
        fill: #615858;
      }
    </style>
  </defs>
  <path class="st0" d="M176.8,85.7h-62.5c-5.7,0-11.1-2.3-15.2-6.3-4-4-6.3-9.5-6.3-15.2V1.8c0-.5-.2-.9-.5-1.3-.3-.3-.8-.5-1.3-.5h-41.1c-7.6,0-14.8,3-20.2,8.4-5.4,5.4-8.4,12.6-8.4,20.2v142.9c0,7.6,3,14.8,8.4,20.2,5.4,5.4,12.6,8.4,20.2,8.4h100c7.6,0,14.8-3,20.2-8.4s8.4-12.6,8.4-20.2v-83.9c0-.5-.2-.9-.5-1.3-.3-.3-.8-.5-1.3-.5ZM135.7,157.1h-71.4c-1.9,0-3.7-.8-5.1-2.1-1.3-1.3-2.1-3.2-2.1-5.1s.8-3.7,2.1-5.1c1.3-1.3,3.2-2.1,5.1-2.1h71.4c1.9,0,3.7.8,5.1,2.1,1.3,1.3,2.1,3.2,2.1,5.1s-.8,3.7-2.1,5.1c-1.3,1.3-3.2,2.1-5.1,2.1ZM135.7,121.4h-71.4c-1.9,0-3.7-.8-5.1-2.1-1.3-1.3-2.1-3.2-2.1-5.1s.8-3.7,2.1-5.1c1.3-1.3,3.2-2.1,5.1-2.1h71.4c1.9,0,3.7.8,5.1,2.1,1.3,1.3,2.1,3.2,2.1,5.1s-.8,3.7-2.1,5.1c-1.3,1.3-3.2,2.1-5.1,2.1Z"/>
  <path class="st0" d="M172.9,69.9L108.7,5.7c-.1-.1-.3-.2-.5-.2-.2,0-.4,0-.5,0-.2,0-.3.2-.4.3,0,.1-.2.3-.2.5v58c0,1.9.8,3.7,2.1,5.1s3.2,2.1,5.1,2.1h58c.2,0,.3,0,.5-.2.1,0,.3-.2.3-.4,0-.2,0-.3,0-.5,0-.2-.1-.3-.2-.5Z"/>
</svg>