<?xml version="1.0" encoding="UTF-8"?>
<svg id="Layer_1" xmlns="http://www.w3.org/2000/svg" version="1.1" viewBox="0 0 200 200">
  <!-- Generator: Adobe Illustrator 29.3.1, SVG Export Plug-In . SVG Version: 2.1.0 Build 151)  -->
  <defs>
    <style>
      .st0 {
        fill: #fff;
      }
    </style>
  </defs>
  <path class="st0" d="M200,41.4c-7.5,3.3-15.4,5.4-23.6,6.4,8.5-5,15-12.9,18.1-22.3-8.1,4.7-16.9,8-26.1,9.8-3.9-4.1-8.5-7.3-13.7-9.5-5.2-2.2-10.7-3.3-16.3-3.3-22.7,0-41,18.1-41,40.4,0,3.1.3,6.2,1.1,9.2-16.3-.8-32.2-4.9-46.7-12.2-14.6-7.3-27.5-17.5-37.8-30-3.6,6.1-5.6,13.2-5.6,20.3,0,14,7.3,26.4,18.3,33.6-6.5-.2-12.9-1.9-18.7-5v.5c0,19.6,14.2,35.9,32.9,39.6-3.5.9-7.2,1.4-10.8,1.4-2.6,0-5.2-.2-7.7-.8,5.2,16,20.4,27.7,38.4,28-14.6,11.3-32.5,17.3-51,17.3-3.3,0-6.5-.2-9.8-.6,18.8,12,40.6,18.3,62.8,18.2,75.6,0,116.8-61.5,116.8-114.9s0-3.5-.1-5.2c8-5.7,14.9-12.8,20.5-20.9Z"/>
</svg>