<?xml version="1.0" encoding="UTF-8"?>
<svg id="Layer_1" xmlns="http://www.w3.org/2000/svg" version="1.1" viewBox="0 0 200 200">
  <!-- Generator: Adobe Illustrator 29.3.1, SVG Export Plug-In . SVG Version: 2.1.0 Build 151)  -->
  <defs>
    <style>
      .st0 {
        fill: #615858;
      }
    </style>
  </defs>
  <path class="st0" d="M38.5,151c8.5-6.5,18-11.6,28.5-15.4,10.5-3.7,21.5-5.6,33-5.6s22.5,1.9,33,5.6c10.5,3.8,20,8.9,28.5,15.4,5.8-6.8,10.4-14.6,13.6-23.2,3.2-8.7,4.9-17.9,4.9-27.8,0-22.2-7.8-41-23.4-56.6-15.6-15.6-34.5-23.4-56.6-23.4s-41,7.8-56.6,23.4c-15.6,15.6-23.4,34.5-23.4,56.6s1.6,19.1,4.9,27.8c3.2,8.7,7.8,16.4,13.6,23.2ZM100,110c-9.8,0-18.1-3.4-24.9-10.1-6.7-6.7-10.1-15-10.1-24.9s3.4-18.1,10.1-24.9c6.8-6.7,15-10.1,24.9-10.1s18.1,3.4,24.9,10.1c6.8,6.8,10.1,15,10.1,24.9s-3.4,18.1-10.1,24.9c-6.7,6.8-15,10.1-24.9,10.1ZM100,200c-13.8,0-26.8-2.6-39-7.9-12.2-5.3-22.7-12.4-31.7-21.4s-16.1-19.6-21.4-31.8C2.6,126.8,0,113.8,0,100s2.6-26.8,7.9-39c5.3-12.2,12.4-22.7,21.4-31.7S48.9,13.2,61,7.9C73.2,2.6,86.2,0,100,0s26.8,2.6,39,7.9c12.2,5.2,22.7,12.4,31.7,21.4s16.1,19.6,21.4,31.7c5.3,12.2,7.9,25.2,7.9,39s-2.6,26.8-7.9,39c-5.2,12.2-12.4,22.8-21.4,31.8s-19.6,16.1-31.7,21.4c-12.2,5.2-25.2,7.9-39,7.9h0Z"/>
</svg>